<svg version="1.1" id="Layer_1" xmlns="http://www.w3.org/2000/svg" xmlns:xlink="http://www.w3.org/1999/xlink" x="0px" y="0px"
	 width="100%" viewBox="0 0 1024 992" enable-background="new 0 0 1024 992" xml:space="preserve">
<path fill="#000000" opacity="1.000000" stroke="none" 
	d="
M483.234131,617.782166 
	C474.888763,608.453552 463.904877,602.786682 455.693298,593.680298 
	C443.203705,579.829895 429.991699,566.495483 414.767059,555.641052 
	C397.738159,543.500244 381.307190,530.296570 361.411621,522.648621 
	C346.232971,516.813843 330.718231,517.687561 315.104645,519.384705 
	C313.139648,519.598206 310.385834,519.917236 310.331604,522.847107 
	C310.276611,525.817749 313.063873,525.729431 314.993591,526.456726 
	C315.926361,526.808289 316.984985,526.915222 317.823395,527.409729 
	C319.675018,528.501831 323.096924,528.279785 322.634491,531.510132 
	C322.186920,534.636780 320.937500,537.951660 317.498444,538.937073 
	C309.080109,541.348999 300.885773,542.170593 292.132111,538.769531 
	C278.743805,533.567688 264.396088,531.868347 250.178024,530.327148 
	C245.690460,529.840820 241.117249,531.960083 238.119751,535.478821 
	C234.369431,539.881042 229.698166,541.854980 224.275940,542.501343 
	C210.739624,544.114868 197.235214,546.915588 183.570969,546.014221 
	C176.380447,545.539856 168.910675,546.153564 161.968521,543.144043 
	C155.276947,540.243164 151.738678,535.641113 150.858109,528.048706 
	C149.120697,513.068848 149.849045,498.089600 149.802338,483.118042 
	C149.703568,451.456726 150.092346,419.794159 150.078827,388.132202 
	C150.061569,347.653290 149.840271,307.174438 149.718063,266.695557 
	C149.695312,259.156128 152.532364,254.579163 158.368896,252.612610 
	C164.325638,250.605560 171.614334,253.037003 175.391556,258.532166 
	C176.588699,260.273743 178.742828,261.317444 179.189468,263.608246 
	C173.455338,266.156219 173.351151,266.156128 173.345093,272.942230 
	C173.273987,352.729309 173.216064,432.516388 173.215668,512.303467 
	C173.215622,522.392944 173.797668,522.866089 184.140884,522.622314 
	C187.606995,522.540710 191.098328,523.379456 194.511017,522.519958 
	C195.278885,520.812866 193.866974,520.300720 193.028992,519.731079 
	C187.159393,515.740906 184.843933,510.094391 184.492630,503.164459 
	C183.503891,483.660675 184.546860,464.195862 185.557037,444.744324 
	C186.086868,434.542206 184.796463,424.451965 184.780609,414.302368 
	C184.712692,370.808136 184.661713,327.313934 184.621918,283.819702 
	C184.604980,265.324341 184.586014,246.828735 184.654083,228.333572 
	C184.693756,217.553207 185.732529,216.694138 196.250488,216.702774 
	C203.154907,216.708435 209.418747,220.374146 216.362747,219.958344 
	C217.166153,219.910248 217.974930,219.951843 219.434311,219.951843 
	C220.016754,213.514587 219.692368,207.249222 219.427170,200.978973 
	C219.216141,195.989075 218.922943,190.990952 219.014694,186.002884 
	C219.131180,179.671127 223.270004,175.087524 229.476746,175.902252 
	C239.706177,177.245010 250.102646,175.709320 260.245056,178.328415 
	C264.695618,179.477676 269.444702,179.088562 274.075043,179.738815 
	C295.553284,182.755096 316.138092,188.652496 336.127014,196.999847 
	C357.989868,206.129730 379.199707,216.517303 398.445404,230.374466 
	C416.212250,243.166840 431.952148,258.252502 445.419373,275.605438 
	C446.030365,276.392731 446.667358,277.168274 447.365540,277.877106 
	C448.054077,278.576141 448.835785,279.183380 449.846252,280.066528 
	C451.332336,277.908600 450.715271,275.729980 450.717957,273.735992 
	C450.782013,225.742355 450.355377,177.741699 451.108032,129.759430 
	C451.320068,116.240120 451.840393,102.093201 460.367126,90.070076 
	C469.194702,77.622780 480.817474,70.303642 495.932343,67.442696 
	C508.465851,65.070358 520.674927,64.837212 531.851135,70.939560 
	C546.518250,78.948036 556.087769,91.314301 559.118591,108.208656 
	C560.874573,117.997078 560.454346,127.746666 559.277344,137.538254 
	C558.355103,145.210999 560.086182,152.813187 560.079834,160.479263 
	C560.049255,197.446960 560.145447,234.414749 560.216553,271.382477 
	C560.218689,272.510376 560.439514,273.637878 560.689941,276.012665 
	C566.315308,270.980957 571.572815,266.811279 576.205505,262.035553 
	C590.619507,247.176483 605.800354,233.315659 623.655701,222.595779 
	C649.659851,206.983597 677.714050,196.114273 706.586426,187.416748 
	C722.758362,182.545105 739.521667,180.236420 756.389648,178.363251 
	C764.759399,177.433777 773.220154,177.301285 781.597534,175.930420 
	C790.341248,174.499619 795.338501,177.847260 794.516296,187.717438 
	C793.799011,196.328720 794.219360,205.031830 794.039978,213.692352 
	C793.972046,216.970612 795.597046,217.835373 798.623535,218.107132 
	C806.174805,218.785217 813.494568,216.520905 820.998169,216.731873 
	C828.478455,216.942184 831.843262,220.212219 831.962219,227.778076 
	C832.054077,233.623138 831.765686,239.421936 830.457947,245.159332 
	C829.693665,248.512482 830.446899,250.541122 834.716431,250.088837 
	C839.994141,249.529755 845.304504,249.394363 850.609009,248.835800 
	C859.931702,247.854111 870.497070,252.899048 870.036560,265.481934 
	C868.067810,319.280731 870.093506,373.112976 868.849548,426.915192 
	C868.102295,459.235901 867.998962,491.546387 868.590393,523.864685 
	C868.866150,538.933777 861.938232,541.638550 848.040222,542.872009 
	C838.118530,543.752563 828.056763,543.168091 818.059692,543.052429 
	C809.738892,542.956116 801.509766,544.143494 793.122009,543.795105 
	C774.212097,543.009888 755.954346,538.229614 737.352051,535.639526 
	C727.386902,534.252075 718.349854,528.870911 708.268372,527.504700 
	C710.012390,519.767090 709.646606,519.703796 702.443542,519.383301 
	C691.275635,518.886475 680.164001,519.754272 669.027954,519.924744 
	C657.358826,520.103271 647.478516,525.062317 637.522217,530.079956 
	C618.884705,539.472595 601.789551,551.269836 585.155457,563.791748 
	C575.468872,571.083618 564.926025,577.396851 556.646240,586.323364 
	C549.596680,593.923523 541.655090,600.438232 534.091492,607.421143 
	C530.978088,610.295532 528.435303,614.025452 526.399170,617.781616 
	C521.730042,626.395203 516.362244,634.658691 512.806519,643.857910 
	C512.329102,645.093140 511.776978,646.333740 511.048370,647.431763 
	C507.665436,652.530212 504.243591,652.722656 500.462280,647.923767 
	C495.471466,641.589844 492.346802,634.188721 488.879395,627.000183 
	C487.352295,623.834106 485.575958,620.852051 483.234131,617.782166 
M702.274597,357.695587 
	C721.287109,351.960632 740.617493,348.429108 760.581299,348.841370 
	C771.419250,349.065186 771.516418,348.807556 771.714661,337.754120 
	C771.735596,336.587952 771.694336,335.419678 771.746643,334.255249 
	C772.501099,317.455536 770.573853,300.725952 771.332581,283.847076 
	C772.543457,256.907074 771.714600,229.874832 771.700684,202.881607 
	C771.699829,201.304901 772.255066,199.516891 770.309753,197.813217 
	C763.639954,198.824112 756.647888,200.218292 749.587341,200.867691 
	C741.140503,201.644577 732.755432,202.787186 724.591858,204.941483 
	C701.242737,211.103195 678.550842,219.003754 657.069946,230.288132 
	C633.286865,242.781891 610.445435,256.555206 590.903442,275.237183 
	C586.096558,279.832550 581.170288,284.272430 577.622070,290.066956 
	C574.757629,294.744812 571.540161,299.379059 565.670776,300.780304 
	C561.624817,301.746307 560.772461,304.329834 560.822327,308.162628 
	C561.006653,322.323700 560.971069,336.488831 560.891418,350.651764 
	C560.803345,366.304535 560.061829,381.972748 560.554688,397.604309 
	C561.043762,413.118256 560.740601,428.547607 559.486023,443.998383 
	C559.220642,447.266449 558.242004,450.804108 560.507202,454.208069 
	C564.807800,451.246735 567.836121,447.461151 570.610840,443.590729 
	C584.381165,424.382812 602.144531,409.327850 621.051514,395.634369 
	C645.416321,377.988007 672.622864,366.096924 702.274597,357.695587 
M389.210785,395.234955 
	C412.571747,410.329437 431.578186,430.243805 450.166748,450.846680 
	C450.758514,446.503723 450.757172,442.548126 450.758698,438.592499 
	C450.774567,397.594086 450.784607,356.595673 450.820557,315.597260 
	C450.823090,312.699188 450.754944,310.075684 447.861725,308.187408 
	C440.510986,303.390045 435.134857,296.576996 429.473328,289.996307 
	C420.343536,279.384399 410.669067,269.182281 399.863739,260.303772 
	C384.919281,248.024338 368.471069,238.017761 351.266510,229.021286 
	C321.519623,213.466278 290.024231,204.389236 256.769775,201.272995 
	C252.228699,200.847458 247.863739,198.447205 242.984680,199.659515 
	C242.845291,200.428635 242.715149,201.053284 242.620422,201.683273 
	C241.117111,211.681488 243.034195,221.628922 243.061859,231.603104 
	C243.127960,255.435349 243.081192,279.267914 243.149231,303.100189 
	C243.189636,317.255157 242.823517,331.423431 244.382751,345.538513 
	C245.086411,351.908630 246.691086,353.038177 252.330353,350.361206 
	C254.697006,349.237762 257.016296,348.805969 259.546326,348.854187 
	C266.852600,348.993408 274.068726,349.255859 281.389038,350.384277 
	C299.711517,353.208710 317.243927,358.542511 334.510223,364.970490 
	C354.015106,372.231781 371.169617,383.801331 389.210785,395.234955 
M738.364197,437.160370 
	C720.738586,438.776428 703.679749,442.784760 687.094055,448.978516 
	C640.593567,466.343719 599.383484,491.169128 569.131348,531.726013 
	C562.622498,540.452026 557.414734,549.544556 556.962646,560.848755 
	C558.876221,560.351990 559.675781,558.764343 560.775635,557.598877 
	C568.887329,549.002869 577.196167,540.583740 586.094849,532.824402 
	C599.457642,521.172424 614.660400,512.153625 630.071350,503.533936 
	C642.418091,496.628174 654.231445,488.732269 667.090454,482.788757 
	C694.372253,470.178925 723.089844,464.266357 753.176331,464.765686 
	C769.334167,465.033813 785.499695,464.853516 801.661682,464.826904 
	C803.909485,464.823181 806.557190,465.310059 806.795654,461.723389 
	C807.093262,457.246552 807.816772,452.780853 807.848633,448.306763 
	C807.949280,434.145905 807.769897,419.983368 807.776428,405.821533 
	C807.801575,351.838684 807.866455,297.855835 807.890503,243.872971 
	C807.893860,236.290527 807.827026,236.290527 800.451843,235.667648 
	C794.202393,235.139832 793.925293,235.324921 794.041443,241.691681 
	C794.703491,277.985657 792.753357,314.303619 795.194397,350.584778 
	C796.101990,364.073914 794.187866,377.526123 793.938965,391.015381 
	C793.730530,402.312286 796.191406,413.545441 794.168274,424.882019 
	C793.051270,431.140747 790.974304,433.711151 784.503662,433.984283 
	C779.013062,434.216064 773.465088,433.715057 768.020874,434.285919 
	C758.441650,435.290405 748.742676,435.041290 738.364197,437.160370 
M230.499725,464.799316 
	C251.931427,465.075928 273.292084,464.647034 294.740417,467.435730 
	C315.324799,470.112091 334.967529,474.913300 353.042664,484.776947 
	C375.532257,497.049622 397.759705,509.933014 417.574677,526.368042 
	C428.949951,535.802979 441.350189,544.116516 450.782623,555.792053 
	C452.526062,557.950073 453.682373,560.865479 457.876099,562.867920 
	C455.384735,557.710083 453.852753,553.679199 451.622437,550.081116 
	C444.768646,539.024353 436.372162,529.138489 428.105530,519.108948 
	C407.011200,493.516022 381.530792,473.479248 352.133636,458.512756 
	C332.665283,448.601135 311.966309,442.299683 290.251495,438.770142 
	C273.953186,436.120972 257.744995,433.871399 241.228485,434.143188 
	C236.388580,434.222809 231.610565,433.757446 226.809204,433.038361 
	C222.456390,432.386475 220.790802,430.121521 220.821014,425.999756 
	C220.849106,422.168121 220.703690,418.335480 220.705215,414.503326 
	C220.727844,357.348541 220.764587,300.193756 220.786545,243.038986 
	C220.787613,240.254868 221.421768,237.109482 216.853134,237.213791 
	C213.236038,237.296371 209.969238,236.856857 209.692688,242.236710 
	C209.334442,249.206024 208.360260,256.136139 208.294312,263.149139 
	C208.062454,287.806244 209.668671,312.450439 208.845032,337.106934 
	C207.476181,378.085388 208.554123,419.071625 208.292938,460.053101 
	C208.268738,463.848450 210.011612,464.965210 213.504517,464.858978 
	C218.831940,464.696991 224.167709,464.808960 230.499725,464.799316 
M667.477600,431.803253 
	C684.243164,425.423676 701.470276,420.590332 719.023071,417.016418 
	C733.843384,413.998901 748.958435,413.100616 764.007446,412.006378 
	C768.641602,411.669403 769.903809,409.924805 770.094849,405.646210 
	C770.644714,393.334930 770.859619,381.043793 769.984680,368.740295 
	C769.587952,363.161743 768.434814,362.243958 763.102478,364.286987 
	C755.634155,367.148376 747.891418,369.080505 740.179016,371.032379 
	C730.050476,373.595825 719.415588,374.580078 709.646423,378.061737 
	C682.852295,387.611023 656.748779,398.770966 632.696228,414.335815 
	C618.675964,423.408600 605.423950,433.403442 593.734741,445.241882 
	C582.866821,456.248535 574.523926,469.425415 564.687683,481.325836 
	C557.955627,489.470581 562.249939,498.102966 561.591736,506.566956 
	C562.673340,506.213104 563.102295,505.732422 563.522644,505.244324 
	C574.838135,492.105560 586.408630,479.150513 600.835876,469.335205 
	C621.759583,455.100220 642.986694,441.312195 667.477600,431.803253 
M390.471039,454.937805 
	C411.273163,469.473328 432.278107,483.781738 446.230774,506.109863 
	C449.377045,501.963470 449.914032,491.050812 447.548798,487.399261 
	C436.949585,471.035736 425.149841,455.597321 411.255463,441.881073 
	C388.875824,419.788330 362.993622,402.802887 334.524536,389.578674 
	C320.764557,383.187012 306.650085,377.809174 291.804535,374.762970 
	C281.118500,372.570251 270.251007,371.201721 259.420532,369.806152 
	C255.662674,369.321960 252.864395,367.917023 251.035538,364.645233 
	C247.401764,366.004486 242.979889,365.504456 243.092697,371.292572 
	C243.323059,383.112152 243.207382,394.940216 243.101318,406.763580 
	C243.072952,409.925842 244.482346,411.553314 247.467239,411.554993 
	C260.794800,411.562500 273.911652,414.113434 287.154663,414.792725 
	C295.400116,415.215668 303.360931,416.778778 311.132324,418.950409 
	C339.160583,426.782501 365.437775,438.653076 390.471039,454.937805 
M516.671143,340.931488 
	C516.889893,358.746918 517.394592,376.564545 517.260193,394.377289 
	C517.060486,420.847473 518.733337,447.306946 517.469910,473.783783 
	C517.084167,481.866913 517.410095,489.984070 517.410095,498.775116 
	C525.413940,497.501770 530.476685,501.806610 536.526733,504.145508 
	C536.635681,502.233856 536.775452,500.923401 536.775635,499.612946 
	C536.786255,406.851929 536.786926,314.090912 536.777283,221.329910 
	C536.777039,219.500641 536.739197,217.661469 536.550415,215.844437 
	C536.276062,213.204300 534.924072,211.899597 532.140137,212.757568 
	C528.928467,213.747375 525.641846,214.294876 522.289429,214.040192 
	C518.831909,213.777512 517.677490,215.230881 517.666870,218.673889 
	C517.614868,235.479034 517.333252,252.283310 517.174438,269.088318 
	C516.951111,292.725830 516.764526,316.363708 516.671143,340.931488 
M477.908936,506.102600 
	C480.161438,505.027832 482.379486,503.872131 484.673737,502.895416 
	C489.257324,500.944031 492.172211,498.134613 492.667511,492.637268 
	C493.144775,487.340179 493.832031,482.080780 493.822266,476.739655 
	C493.751343,437.948517 493.697449,399.157318 493.701355,360.366119 
	C493.705841,315.897919 493.793091,271.429749 493.805664,226.961563 
	C493.809265,214.285950 493.178986,213.809296 480.620789,214.101044 
	C477.498596,214.173584 476.065643,215.125961 476.111877,218.430435 
	C476.347198,235.244812 475.764130,252.042725 475.192993,268.848358 
	C474.412140,291.823059 476.047668,314.788422 476.089447,337.763824 
	C476.168793,381.385590 476.249115,425.005554 475.122620,468.622711 
	C474.788391,481.564453 474.663025,494.504913 473.762817,507.457642 
	C475.270264,508.271362 476.191315,506.979828 477.908936,506.102600 
M845.961304,495.499847 
	C845.958923,469.508942 846.094299,443.517151 845.924255,417.527344 
	C845.607178,369.069305 846.887390,320.600647 844.895874,272.149536 
	C844.689758,267.134521 842.195068,266.929657 838.535400,266.999969 
	C835.097351,267.066040 831.955872,266.642334 831.864807,271.867340 
	C831.569092,288.837799 830.695679,305.798401 830.418579,322.768921 
	C830.032471,346.419159 832.248840,370.061157 831.197937,393.705933 
	C830.198914,416.183563 829.652771,438.676056 830.391541,461.136169 
	C830.800659,473.576874 829.420776,486.068024 831.333618,498.460175 
	C832.580811,506.539703 833.623230,514.554626 823.959106,519.239868 
	C829.672485,519.911316 834.804565,519.938721 839.876343,520.505554 
	C843.006714,520.855530 844.387085,519.982666 845.133606,516.901062 
	C846.775269,510.123901 845.718994,503.297028 845.961304,495.499847 
M514.098999,587.804932 
	C517.506409,584.282471 519.844238,580.085510 521.774597,575.631714 
	C525.335144,567.416565 527.108154,558.512817 531.455322,550.597412 
	C533.881897,546.178833 534.278076,541.070618 536.141602,536.457092 
	C536.701172,535.071777 536.555054,533.978027 535.349731,532.910461 
	C531.376892,529.391907 527.409180,525.860901 523.585449,522.183044 
	C520.971008,519.668335 518.884033,520.216492 517.036499,522.902039 
	C514.777283,526.185913 512.745728,529.629150 510.427856,532.869141 
	C507.461670,537.015198 503.848389,537.703369 499.700562,534.681030 
	C496.916687,532.652527 493.839264,530.883545 491.951080,527.754028 
	C490.447723,525.262329 488.274841,524.577576 486.395935,527.180786 
	C483.713318,530.897644 479.797821,532.517639 475.546600,534.065002 
	C475.981262,536.376648 476.045624,538.606689 476.823395,540.551453 
	C482.182465,553.952148 487.506012,567.372803 493.216400,580.625305 
	C496.936035,589.257751 505.671906,592.312134 514.098999,587.804932 
M764.755371,501.719971 
	C776.073486,502.057190 787.362610,503.029480 798.708374,502.850952 
	C809.756165,502.677063 809.634705,502.860992 810.149963,491.635773 
	C810.296631,488.440674 809.275024,487.431335 806.232483,486.702087 
	C799.158752,485.006592 791.930115,485.847229 784.873108,484.874176 
	C761.324463,481.627228 738.071106,484.311371 714.893555,488.042725 
	C703.393433,489.894135 692.449768,494.069702 681.372009,497.592468 
	C678.366638,498.548157 675.458679,499.835144 672.559937,501.094116 
	C669.854614,502.269073 666.776062,502.840668 664.454102,505.409912 
	C697.641357,497.997467 730.783325,501.271667 764.755371,501.719971 
M217.940201,502.814789 
	C238.249527,502.454803 258.559052,503.205383 278.877777,502.138733 
	C295.833313,501.248627 312.796173,501.792084 329.673248,504.354614 
	C334.227234,505.046112 338.908203,507.094910 343.714752,505.341888 
	C343.914429,501.610657 341.105377,501.025024 338.868195,500.328949 
	C327.766937,496.874847 316.540741,493.939941 305.180573,491.367432 
	C290.529724,488.049713 275.712189,486.504883 260.821198,485.315704 
	C244.491898,484.011688 228.288116,486.659241 212.013138,487.137756 
	C209.272964,487.218353 208.033234,488.352844 208.169510,491.084412 
	C208.244141,492.580322 208.178604,494.082611 208.211624,495.581268 
	C208.386948,503.539307 209.708862,504.621765 217.940201,502.814789 
M528.507141,97.997238 
	C519.840515,87.795670 505.837250,85.762016 494.361328,90.312141 
	C483.214691,94.731689 474.381775,107.160927 474.350525,117.861488 
	C474.338928,121.828712 475.863190,123.212158 479.691864,123.037201 
	C483.506195,122.862885 487.366241,122.847321 491.160370,123.224091 
	C504.961182,124.594566 518.783447,123.656845 532.593262,123.856926 
	C535.540955,123.899635 536.580811,122.426231 536.839355,119.576897 
	C537.595276,111.245865 535.418091,104.112366 528.507141,97.997238 
M507.497375,160.075943 
	C515.634888,160.248138 523.772156,160.433029 531.910095,160.580902 
	C533.386475,160.607727 535.422729,160.957809 536.010925,159.471039 
	C537.508423,155.686279 537.521301,151.473373 536.268311,147.781830 
	C535.305420,144.945023 531.854858,146.237900 529.538574,146.378586 
	C513.956787,147.324951 498.376648,147.917221 482.766724,147.209534 
	C474.316437,146.826431 474.382080,146.983063 474.323853,155.616333 
	C474.296906,159.610809 475.758087,160.848770 479.597137,160.692871 
	C488.557831,160.328964 497.530609,160.262146 507.497375,160.075943 
M515.498779,193.734390 
	C520.648743,193.711151 525.813293,193.438553 530.944214,193.739853 
	C535.431152,194.003311 537.553162,192.177032 537.479736,187.838547 
	C537.403442,183.328644 533.856445,184.394135 531.231079,184.281128 
	C514.270691,183.551025 497.450439,186.754715 480.476685,186.085098 
	C474.217682,185.838181 473.235077,187.624222 475.286224,194.237335 
	C488.319794,193.131958 501.414490,194.019958 515.498779,193.734390 
M800.762268,526.094849 
	C807.613464,525.849670 813.914429,523.796570 819.848328,520.440857 
	C809.511719,522.967102 798.733093,522.540344 787.078674,524.834595 
	C791.980713,527.085876 793.447876,527.183044 800.762268,526.094849 
z"/>
<path fill="#000000" opacity="1.000000" stroke="none" 
	d="
M748.712097,666.667236 
	C739.072937,676.461243 730.295593,686.712036 720.163635,695.379211 
	C689.571350,721.548889 656.763428,744.420349 618.259094,757.645203 
	C603.042297,762.871582 587.706238,768.191589 571.806519,770.768372 
	C557.425659,773.098999 542.974854,775.238159 528.399414,776.519409 
	C520.965210,777.172913 513.570557,778.068542 506.096527,778.029175 
	C490.120667,777.945007 474.367035,775.710693 458.601196,773.363708 
	C442.822723,771.014832 427.268097,767.927002 411.896179,763.531372 
	C382.235626,755.049866 354.538086,742.433411 328.445740,726.074280 
	C309.904938,714.449707 292.241669,701.596985 276.508667,686.434753 
	C256.561493,667.211304 238.142731,646.590271 225.155548,621.768738 
	C222.925354,617.506348 220.997742,613.095215 220.629929,608.150635 
	C220.423111,605.370239 220.308426,602.819214 223.138016,601.160034 
	C225.958740,599.506104 228.753571,600.139404 231.204712,601.619812 
	C235.637375,604.297119 239.546112,607.630188 242.709503,611.839172 
	C249.209885,620.488220 255.564423,629.271057 262.494720,637.568054 
	C280.535828,659.167053 301.845490,677.174622 324.363922,693.963806 
	C345.486298,709.711975 368.145172,722.405884 392.880615,731.317200 
	C410.150787,737.539062 427.561615,743.145447 445.817841,746.242249 
	C457.051025,748.147705 468.304413,750.654724 479.554565,752.072693 
	C495.832062,754.124390 512.367126,755.316772 528.830566,753.173828 
	C535.403198,752.318420 542.002686,752.272339 548.620361,751.240295 
	C565.197205,748.655273 581.622986,745.592407 597.620056,740.597595 
	C622.629517,732.788879 646.831909,723.137024 668.833862,708.541748 
	C690.294006,694.305908 709.864258,677.930725 727.847900,659.457336 
	C742.969788,643.923706 754.832275,626.119019 766.385193,608.018860 
	C770.043518,602.287354 774.883728,597.769104 779.941284,593.456055 
	C782.898865,590.933777 786.499939,590.316040 790.200989,592.232422 
	C793.857971,594.126160 795.773132,596.610840 794.254089,601.076233 
	C791.906921,607.975952 787.474365,613.629944 783.802917,619.750793 
	C777.037720,631.029297 768.217529,640.846252 761.163574,651.978027 
	C757.941101,657.063171 752.170471,660.810303 748.712097,666.667236 
z"/>
<path fill="#000000" opacity="1.000000" stroke="none" 
	d="
M487.129028,875.676514 
	C487.493958,860.069336 501.395966,851.618530 514.181641,858.800049 
	C520.493896,862.345581 524.028625,871.165161 522.170471,878.733459 
	C520.541626,885.367676 512.561340,892.040222 505.967560,892.281250 
	C494.785706,892.689941 490.308502,888.837769 487.129028,875.676514 
z"/>
<path fill="#000000" opacity="1.000000" stroke="none" 
	d="
M347.990784,144.035919 
	C342.882935,138.747284 341.033356,132.798645 344.251404,126.474960 
	C347.897644,119.309723 355.011505,116.657196 362.422211,115.953445 
	C368.754059,115.352150 375.171051,125.303764 373.035950,131.588333 
	C370.323486,139.572205 364.133362,144.279129 356.911041,147.687561 
	C353.229736,149.424866 350.688660,146.609879 347.990784,144.035919 
z"/>
<path fill="#000000" opacity="1.000000" stroke="none" 
	d="
M667.992615,136.288925 
	C664.528931,143.991165 663.439331,144.555786 655.734924,143.021164 
	C649.460144,141.771317 645.996521,137.852814 645.856934,131.829285 
	C645.833862,130.832367 645.831055,129.833176 645.868774,128.836929 
	C646.117126,122.277756 649.643372,117.898308 654.835022,117.680611 
	C661.806396,117.388290 667.480957,121.885925 668.101074,128.407684 
	C668.335449,130.872375 668.089844,133.382736 667.992615,136.288925 
z"/>
<path fill="#000000" opacity="1.000000" stroke="none" 
	d="
M575.775330,364.848755 
	C588.458374,349.751129 601.854248,335.936615 617.777466,324.728607 
	C640.065063,309.040833 663.263916,295.066284 689.529541,287.051941 
	C704.750549,282.407562 719.935181,277.393158 735.741394,275.133057 
	C742.115295,274.221680 748.708069,274.756958 755.200256,274.794403 
	C758.157288,274.811432 759.421814,276.458649 758.621155,279.433319 
	C758.491272,279.915649 758.402954,280.433014 758.160950,280.857544 
	C755.979126,284.684967 760.026611,291.521881 753.685242,292.813263 
	C749.403625,293.685120 744.982361,294.538422 740.598816,295.223724 
	C727.485046,297.273895 714.694641,300.562592 702.134277,305.060822 
	C676.274109,314.322083 652.097595,326.775726 629.338257,342.029877 
	C617.168701,350.186310 606.138733,359.815704 595.355774,369.701904 
	C593.164978,371.710510 591.286621,374.106598 589.500610,376.500427 
	C585.771912,381.498138 575.878296,382.640015 571.325928,378.455780 
	C569.867859,377.115509 569.903503,375.599854 570.826111,373.939941 
	C572.443726,371.029633 573.996582,368.083282 575.775330,364.848755 
z"/>
<path fill="#000000" opacity="1.000000" stroke="none" 
	d="
M298.119995,279.667664 
	C313.441010,282.640076 327.457153,288.112885 341.433899,293.923492 
	C362.992920,302.886322 382.187317,315.676270 400.677368,329.580078 
	C414.416992,339.911804 426.429291,352.193634 437.563385,365.289520 
	C440.035645,368.197388 443.313446,370.485718 444.959381,374.020020 
	C448.570770,381.774536 445.882874,383.760681 439.509766,384.246246 
	C431.448944,384.860443 425.187775,382.429657 419.131714,377.100708 
	C406.272522,365.785370 394.931396,352.870911 380.927643,342.722137 
	C358.070007,326.156708 333.457245,313.476013 306.489349,305.123779 
	C291.710297,300.546539 276.702759,297.274139 261.430695,295.043243 
	C261.265961,295.019135 261.097168,295.015167 260.935547,294.978577 
	C255.886063,293.834076 254.285416,288.841492 256.001740,279.595215 
	C256.964447,274.408783 259.052551,273.150452 264.477051,273.835083 
	C275.645142,275.244659 286.751099,276.956604 298.119995,279.667664 
z"/>
</svg>